<?xml version="1.0" encoding="UTF-8"?>
<svg id="Capa_2" data-name="Capa 2" xmlns="http://www.w3.org/2000/svg" viewBox="0 0 938.89 219.25">
  <defs>
    <style>
      .cls-1 {
        fill: #fff;
      }
    </style>
  </defs>
  <g id="Capa_1-2" data-name="Capa 1">
    <g>
      <g>
        <path class="cls-1" d="M117.96,63.14c3.36-2,6.47-4.05,9.35-6.13l-9.35-7.74v13.88Z"/>
        <path class="cls-1" d="M95.36,30.55v43.6c5.72-2.28,10.97-4.69,15.78-7.21v-23.32l-15.78-13.07Z"/>
        <path class="cls-1" d="M171.09,11.51c-6.13,26.56-27.04,55.89-77.8,74.36C49.29,102.35-21.58,121.37,6.33,158.96c9.71-23.24,36.21-32.95,86.97-51.43,44-16.48,96.19-54.45,77.8-96.02Z"/>
        <path class="cls-1" d="M183.53,26.46c-.07,38.39-39.49,75.16-90.24,93.64-44,16.48-101.85,34.4-68.97,63.47,8.71-19.98,18.77-22.15,68.97-41.82,81.59-31.96,105.5-82.19,90.24-115.29Z"/>
        <path class="cls-1" d="M56.98,62.32v25.81c5.35-1.99,10.66-3.88,15.77-5.7v-33.17l-15.77,13.06Z"/>
        <path class="cls-1" d="M79.57,43.62v36.38c3.51-1.26,6.89-2.48,10.13-3.7l.09-.03c1.9-.69,3.75-1.4,5.56-2.12V30.55l-15.78,13.07Z"/>
        <path class="cls-1" d="M34.39,81.04v16.2c5.1-2.28,10.41-4.44,15.78-6.52v-22.74l-15.78,13.07Z"/>
        <g>
          <path class="cls-1" d="M21.6,58.27L95.36,18.68s0,0,46.92,25.19c4.1-4.42,7.42-8.88,10.08-13.27Q95.36,0,95.36,0L6.45,47.72c0,15.63-1.22,38.13,3.64,62.8,3.82-2.69,8.22-5.33,13.22-7.95-2.47-17.38-1.7-33-1.7-44.3Z"/>
          <path class="cls-1" d="M95.36,200.56c-5.33-2.86-10.28-5.82-14.87-8.88-5.76,2.31-10.62,4.32-14.51,6.06-.74.33-1.42.64-2.07.94,9.01,7.22,19.42,14.12,31.45,20.57,41.88-22.44,64.15-50.43,75.95-78.09-8.25,8.01-18.21,15.55-29.84,22.59-10.73,13.21-25.58,25.82-46.11,36.82Z"/>
        </g>
        <path class="cls-1" d="M190.5,70.95c-12.33,38.75-46.47,64.76-97.21,83.06-24.34,8.78-40.94,16.69-50.34,23.72-7.69,5.75-5.8,17.77,3.28,20.89.09.03.18.06.28.09,1.38-4.9,13.47-10.12,46.78-23.04,81.72-31.69,99.67-72.22,97.21-104.72Z"/>
      </g>
      <g>
        <path class="cls-1" d="M357.44,176.34v-86.5l-37.29,56.59h-.76l-36.91-56.03v85.93h-28.77V43.85h31.42l34.83,56.02,34.83-56.02h31.42v132.49h-28.77Z"/>
        <path class="cls-1" d="M516.62,176.34l-12.11-29.72h-56.03l-12.11,29.72h-29.72l56.78-133.44h26.88l56.78,133.44h-30.47ZM476.49,77.92l-17.6,42.97h35.21l-17.6-42.97Z"/>
        <path class="cls-1" d="M627.53,70.73v105.62h-29.15v-105.62h-40.32v-26.88h109.78v26.88h-40.32Z"/>
        <path class="cls-1" d="M807.16,136.22c-3.41,8.08-8.23,15.08-14.48,21.01-6.25,5.93-13.69,10.6-22.33,14.01-8.64,3.41-18.14,5.11-28.49,5.11h-51.67V43.85h51.67c10.35,0,19.84,1.67,28.49,5.02,8.64,3.34,16.09,7.98,22.33,13.91,6.25,5.93,11.07,12.9,14.48,20.91,3.41,8.01,5.11,16.69,5.11,26.03v.38c0,9.34-1.7,18.05-5.11,26.12ZM781.79,110.1c0-5.8-.98-11.17-2.93-16.09-1.96-4.92-4.67-9.15-8.14-12.68-3.47-3.53-7.67-6.28-12.59-8.23-4.92-1.96-10.35-2.93-16.28-2.93h-22.52v79.88h22.52c5.93,0,11.36-.95,16.28-2.84s9.11-4.61,12.59-8.14c3.47-3.53,6.18-7.69,8.14-12.49,1.96-4.79,2.93-10.16,2.93-16.09v-.38Z"/>
        <path class="cls-1" d="M838.2,176.34V43.85h99.75v25.93h-70.98v26.88h62.46v25.93h-62.46v27.82h71.93v25.93h-100.7Z"/>
      </g>
    </g>
  </g>
</svg>