<?xml version="1.0" encoding="UTF-8"?>
<svg id="Capa_2" data-name="Capa 2" xmlns="http://www.w3.org/2000/svg" xmlns:xlink="http://www.w3.org/1999/xlink" viewBox="0 0 559.6 867.9">
  <defs>
    <style>
      .cls-1 {
        fill: url(#Degradado_sin_nombre_16);
      }

      .cls-2 {
        fill: url(#Degradado_sin_nombre_18-2);
      }

      .cls-3, .cls-4 {
        fill: #061623;
      }

      .cls-5 {
        fill: url(#Degradado_sin_nombre_7);
      }

      .cls-4 {
        font-family: Gotham-Bold, Gotham;
        font-size: 147.86px;
        font-weight: 700;
      }

      .cls-6 {
        fill: url(#Degradado_sin_nombre_10);
      }

      .cls-7 {
        fill: url(#Degradado_sin_nombre_18);
      }

      .cls-8 {
        fill: #1f5066;
      }
    </style>
    <linearGradient id="Degradado_sin_nombre_7" data-name="Degradado sin nombre 7" x1="38.75" y1="486.63" x2="496.81" y2="28.57" gradientUnits="userSpaceOnUse">
      <stop offset="0" stop-color="#061623"/>
      <stop offset=".39" stop-color="#061724"/>
      <stop offset=".53" stop-color="#091d2b"/>
      <stop offset=".63" stop-color="#0d2737"/>
      <stop offset=".71" stop-color="#133648"/>
      <stop offset=".78" stop-color="#1b495e"/>
      <stop offset=".84" stop-color="#256079"/>
      <stop offset=".9" stop-color="#317c9a"/>
      <stop offset=".95" stop-color="#3f9cbf"/>
      <stop offset="1" stop-color="#4ebfe8"/>
      <stop offset="1" stop-color="#50c4ed"/>
    </linearGradient>
    <linearGradient id="Degradado_sin_nombre_10" data-name="Degradado sin nombre 10" x1="86.57" y1="554.25" x2="550.86" y2="89.96" gradientUnits="userSpaceOnUse">
      <stop offset="0" stop-color="#163d50"/>
      <stop offset="1" stop-color="#50c4ed"/>
    </linearGradient>
    <linearGradient id="Degradado_sin_nombre_18" data-name="Degradado sin nombre 18" x1="-101.25" y1="452.52" x2="397.13" y2="-43.82" gradientUnits="userSpaceOnUse">
      <stop offset="0" stop-color="#061623"/>
      <stop offset=".47" stop-color="#071724"/>
      <stop offset=".64" stop-color="#0c1e2b"/>
      <stop offset=".77" stop-color="#162a36"/>
      <stop offset=".86" stop-color="#243b46"/>
      <stop offset=".95" stop-color="#35515b"/>
      <stop offset="1" stop-color="#44636d"/>
    </linearGradient>
    <linearGradient id="Degradado_sin_nombre_18-2" data-name="Degradado sin nombre 18" x1="154.74" y1="709.56" x2="653.12" y2="213.22" xlink:href="#Degradado_sin_nombre_18"/>
    <linearGradient id="Degradado_sin_nombre_16" data-name="Degradado sin nombre 16" x1="111.94" y1="395.62" x2="559.6" y2="395.62" gradientUnits="userSpaceOnUse">
      <stop offset="0" stop-color="#dc5822"/>
      <stop offset=".47" stop-color="#dc5922"/>
      <stop offset=".64" stop-color="#df6023"/>
      <stop offset=".76" stop-color="#e36c26"/>
      <stop offset=".86" stop-color="#ea7d2a"/>
      <stop offset=".94" stop-color="#f2932f"/>
      <stop offset="1" stop-color="#fba834"/>
    </linearGradient>
  </defs>
  <g id="Capa_1-2" data-name="Capa 1">
    <g>
      <g>
        <path class="cls-8" d="M346.11,185.26c9.85-5.86,18.98-11.87,27.44-17.99l-27.44-22.72v40.71Z"/>
        <path class="cls-8" d="M279.8,89.63v127.93c16.8-6.69,32.2-13.77,46.31-21.15v-68.43l-46.31-38.35Z"/>
        <path class="cls-5" d="M502.02,33.78c-17.99,77.92-79.35,164-228.28,218.2-129.1,48.35-337.06,104.14-255.18,214.46,28.5-68.18,106.25-96.7,255.18-150.91,129.1-48.35,282.25-159.76,228.28-281.75Z"/>
        <path class="cls-6" d="M538.54,77.63c-.2,112.65-115.86,220.54-264.8,274.75-129.1,48.35-298.84,100.93-202.38,186.25,25.55-58.62,55.08-64.99,202.38-122.7,239.4-93.79,309.57-241.16,264.8-338.3Z"/>
        <path class="cls-3" d="M167.2,182.88v75.73c15.69-5.83,31.28-11.4,46.28-16.74v-97.32l-46.28,38.33Z"/>
        <path class="cls-3" d="M233.49,127.98v106.75c10.3-3.69,20.22-7.28,29.73-10.84l.26-.1c5.59-2.03,11.02-4.11,16.32-6.23v-127.93l-46.31,38.35Z"/>
        <path class="cls-3" d="M100.91,237.78v47.52c14.95-6.68,30.56-13.04,46.3-19.13v-66.74l-46.3,38.34Z"/>
        <g>
          <path class="cls-7" d="M63.38,170.99l216.42-116.17s0,0,137.68,73.9c12.04-12.98,21.76-26.07,29.59-38.94Q279.81,0,279.8,0L18.92,140.03c0,45.86-3.57,111.88,10.68,184.28,11.22-7.9,24.12-15.65,38.78-23.33-7.24-50.99-4.99-96.84-4.99-129.99Z"/>
          <path class="cls-2" d="M279.8,588.5c-15.65-8.39-30.16-17.09-43.65-26.06-16.91,6.77-31.15,12.67-42.56,17.78-2.17.97-4.18,1.89-6.06,2.76,26.44,21.19,56.98,41.44,92.27,60.35,122.88-65.84,188.23-147.97,222.84-229.15-24.19,23.49-53.42,45.62-87.55,66.3-31.49,38.76-75.06,75.75-135.3,108.03Z"/>
        </g>
        <path class="cls-1" d="M558.97,208.18c-36.17,113.71-136.36,190.03-285.23,243.72-71.43,25.76-120.12,48.99-147.72,69.6-22.58,16.86-17.02,52.14,9.64,61.28.27.09.54.18.81.28,4.05-14.37,39.54-29.7,137.27-67.61,239.78-92.99,292.47-211.9,285.23-307.27Z"/>
      </g>
      <text class="cls-4" transform="translate(1.98 842.32)"><tspan x="0" y="0">MATDE</tspan></text>
    </g>
  </g>
</svg>